<svg width="817" height="917" viewBox="0 0 817 917" fill="none" xmlns="http://www.w3.org/2000/svg">
<path d="M667.941 200.637C714.289 202.117 748.683 193.437 786.654 230.697C808.886 252.516 816.33 278.565 816.379 308.953L816.223 590.996L816.255 672.646C816.272 698.695 817.718 725.339 811.993 750.761C803.219 789.764 783.473 825.447 755.086 853.603C727.128 881.899 691.784 901.777 653.078 910.955C627.145 917.201 606.672 916.169 580.4 916.169L523.336 916.136L343.206 916.127C298.967 916.061 255.808 923.166 222.318 889.161C196.257 862.699 194.879 838.137 194.878 803.818L194.934 763.476L483.853 763.294L557.416 763.385C571.213 763.442 593.065 764.293 605.838 762.178C620.676 759.617 634.365 752.537 645.023 741.904C656.705 730.255 664.372 715.194 666.941 698.894C668.974 686.261 668.115 656.594 668.073 642.846L668.139 550.001L667.941 200.637Z" fill="#010101"/>
<path d="M194.975 0.486827C206.867 -0.306298 223.547 0.136513 235.774 0.138991L306.419 0.166272L522.262 0.00019502C565.248 -0.0708558 599.08 19.2707 615.396 60.6809C621.684 76.6277 620.717 93.3048 620.709 110.135L620.734 153.723L233.786 153.596C206.687 153.605 189.096 154.748 168.764 175.364C159.066 185.071 152.382 197.376 149.517 210.795C146.236 226.314 147.453 271.432 147.456 288.965L147.559 437.816L147.308 716.12C105.072 716.219 69.7008 721.086 35.2891 692.12C15.3494 675.464 2.93125 651.497 0.821209 625.605C-0.676641 606.074 0.340373 570.772 0.300717 550.126L0.270966 397.401L0.377515 263.433C0.412214 234.252 -1.16824 193.831 4.37868 166.301C11.4805 132.089 27.3314 100.302 50.3849 74.045C88.1492 30.215 137.351 4.76227 194.975 0.486827Z" fill="#010101"/>
<path d="M391.421 201.256C399.08 200.377 413.117 200.661 421.081 200.688L466.165 200.809L620.593 200.702L620.618 351.601L479.177 351.568C461.993 351.566 421.031 350.371 406.962 353.384C392.776 356.478 379.772 363.571 369.49 373.825C359.553 383.607 352.617 396.022 349.496 409.611C346.045 425.141 347.249 469.219 347.201 486.75L347.085 638.369L347.187 716.046C297.148 716.822 245.142 716.095 194.952 716.153L194.939 507.528L194.893 444.425C194.88 417.868 193.952 397.157 199.602 370.681C207.326 336.15 223.263 303.99 246.062 276.93C282.29 233.087 334.73 205.788 391.421 201.256Z" fill="#010101"/>
<path d="M468.371 398.939L620.676 399.005L620.816 466.344C620.825 491.005 621.692 518.632 616.239 542.525C601.988 604.884 567.999 649.762 515.578 684.189C476.724 708.594 439.281 716.384 394.073 716.104V562.287C414.496 559.28 431.309 553.662 446.073 538.551C471.651 512.361 468.503 487.998 468.47 454.926L468.371 398.939Z" fill="#010101"/>
</svg>
